<?xml version="1.0" encoding="utf-8"?>
<!-- Generator: Adobe Illustrator 24.0.2, SVG Export Plug-In . SVG Version: 6.00 Build 0)  -->
<svg version="1.1" id="Layer_1" xmlns="http://www.w3.org/2000/svg" xmlns:xlink="http://www.w3.org/1999/xlink" x="0px" y="0px"
	 viewBox="0 0 48 48" style="enable-background:new 0 0 48 48;" xml:space="preserve">
<style type="text/css">
	.st0{fill:#1FA1F1;}
	.st1{fill:none;stroke:#FDF6F6;stroke-width:1.5;stroke-linejoin:round;}
</style>
<path class="st0" d="M24,0L24,0c13.3,0,24,10.7,24,24l0,0c0,13.3-10.7,24-24,24l0,0C10.7,48,0,37.3,0,24l0,0C0,10.7,10.7,0,24,0z"/>
<path class="st1" d="M31.7,19.9H16.3l7.7,6.4L31.7,19.9z M13.7,18.9c0-1.4,1.2-2.6,2.6-2.6h15.4c1.4,0,2.6,1.2,2.6,2.6v10.3
	c0,1.4-1.1,2.6-2.6,2.6H16.3c-1.4,0-2.6-1.1-2.6-2.6V18.9z"/>
</svg>
