<?xml version="1.0" encoding="utf-8"?>
<!-- Generator: Adobe Illustrator 24.0.2, SVG Export Plug-In . SVG Version: 6.00 Build 0)  -->
<svg version="1.1" id="Layer_1" xmlns="http://www.w3.org/2000/svg" xmlns:xlink="http://www.w3.org/1999/xlink" x="0px" y="0px"
	 viewBox="0 0 17.6 17.3" style="enable-background:new 0 0 17.6 17.3;" xml:space="preserve">
<style type="text/css">
	.st0{fill:none;}
	.st1{fill:#B26569;}
</style>
<g transform="translate(246 680.957)">
	<rect x="-246" y="-681.7" class="st0" width="18" height="18"/>
	<path class="st1" d="M-243.8-675.4v9.9h13.2v-9.9H-243.8z M-231.7-678.8h2.2c0.6,0,1.1,0.4,1.1,1c0,0,0,0.1,0,0.1v13.2
		c0,0.6-0.4,1.1-1,1.1c0,0-0.1,0-0.1,0h-15.4c-0.6,0-1.1-0.4-1.1-1c0,0,0-0.1,0-0.1v-13.2c0-0.6,0.4-1.1,1-1.1c0,0,0.1,0,0.1,0h2.2
		v-1.1c0-0.6,0.4-1.1,1-1.1c0,0,0.1,0,0.1,0c0.6,0,1.1,0.4,1.1,1c0,0,0,0.1,0,0.1v1.1h6.6v-1.1c0-0.6,0.5-1.1,1.1-1.1
		c0.6,0,1.1,0.5,1.1,1.1L-231.7-678.8z M-232.8-667.7h-2.2v-2.2h2.2V-667.7z M-236.1-667.7h-2.2v-2.2h2.2V-667.7z M-232.8-671h-2.2
		v-2.2h2.2V-671z M-236.1-671h-2.2v-2.2h2.2V-671z M-239.4-667.7h-2.2v-2.2h2.2V-667.7z"/>
</g>
</svg>
