<?xml version="1.0" encoding="utf-8"?>
<!-- Generator: Adobe Illustrator 24.0.2, SVG Export Plug-In . SVG Version: 6.00 Build 0)  -->
<svg version="1.1" id="Layer_1" xmlns="http://www.w3.org/2000/svg" xmlns:xlink="http://www.w3.org/1999/xlink" x="0px" y="0px"
	 viewBox="0 0 48 48" style="enable-background:new 0 0 48 48;" xml:space="preserve">
<style type="text/css">
	.st0{fill:#ED5C99;}
	.st1{fill:#FFFFFF;}
</style>
<path class="st0" d="M24,0L24,0c13.3,0,24,10.7,24,24l0,0c0,13.3-10.7,24-24,24l0,0C10.7,48,0,37.3,0,24l0,0C0,10.7,10.7,0,24,0z"/>
<path class="st1" d="M24,16.3c1.2,0,2.5,0,3.7,0.1c0.6,0,1.2,0.1,1.8,0.3c0.8,0.4,1.4,1,1.8,1.8c0.2,0.6,0.3,1.2,0.3,1.8
	c0,0.9,0.1,1.2,0.1,3.7c0,1.2,0,2.5-0.1,3.7c0,0.6-0.1,1.2-0.3,1.8c-0.4,0.8-1,1.4-1.8,1.8c-0.6,0.2-1.2,0.3-1.8,0.3
	c-0.9,0-1.2,0.1-3.7,0.1c-1.2,0-2.5,0-3.7-0.1c-0.6,0-1.2-0.1-1.8-0.3c-0.8-0.4-1.4-1-1.8-1.8c-0.2-0.6-0.3-1.2-0.3-1.8
	c0-0.9-0.1-1.2-0.1-3.7c0-1.2,0-2.5,0.1-3.7c0-0.6,0.1-1.2,0.3-1.8c0.2-0.4,0.4-0.7,0.7-1c0.2-0.4,0.6-0.6,1-0.7
	c0.6-0.2,1.2-0.3,1.8-0.3C21.5,16.3,22.8,16.3,24,16.3 M24,14.7c-1.3,0-2.6,0-3.8,0.1c-0.8,0-1.6,0.1-2.3,0.4
	c-0.6,0.2-1.2,0.6-1.7,1c-0.5,0.5-0.8,1-1,1.7c-0.3,0.7-0.5,1.5-0.4,2.3c-0.1,1.3-0.1,2.6-0.1,3.8c0,1.3,0,2.6,0.1,3.8
	c0,0.8,0.1,1.6,0.4,2.3c0.2,0.6,0.6,1.2,1,1.7c0.5,0.5,1,0.8,1.7,1c0.7,0.3,1.5,0.4,2.3,0.4c1.3,0.1,2.6,0.1,3.8,0.1
	c1.3,0,2.6,0,3.8-0.1c0.8,0,1.6-0.1,2.3-0.4c1.3-0.4,2.3-1.4,2.7-2.7c0.3-0.7,0.4-1.5,0.4-2.3c0-1,0.1-1.3,0.1-3.8
	c0-1.3,0-2.6-0.1-3.8c0-0.8-0.1-1.6-0.4-2.3c-0.2-0.6-0.6-1.2-1-1.7c-0.5-0.5-1-0.8-1.7-1c-0.7-0.3-1.5-0.4-2.3-0.4
	C26.6,14.7,25.3,14.6,24,14.7 M24,19.2c-2.6,0-4.7,2-4.8,4.6c0,0.1,0,0.1,0,0.2c0,2.6,2.1,4.8,4.8,4.8s4.8-2.1,4.8-4.8
	S26.6,19.2,24,19.2 M24,27.1c-1.7,0-3.1-1.3-3.1-3c0,0,0-0.1,0-0.1c0-1.7,1.3-3.1,3-3.1c0,0,0.1,0,0.1,0c1.7,0,3.1,1.3,3.1,3
	c0,0,0,0.1,0,0.1c0,1.7-1.3,3.1-3,3.1C24.1,27.1,24,27.1,24,27.1 M29,17.9c-0.6,0-1.1,0.5-1.1,1.1s0.5,1.1,1.1,1.1
	c0.6,0,1.1-0.5,1.1-1.1c0,0,0,0,0,0C30.1,18.4,29.6,17.9,29,17.9"/>
</svg>
