<svg xmlns="http://www.w3.org/2000/svg" width="48" height="48" viewBox="0 0 48 48"><defs><style>.a{fill:#bc7d81;}.b{fill:#fff;}</style></defs><g transform="translate(-360 -982)"><rect class="a" width="48" height="48" rx="24" transform="translate(360 982)"/><g transform="translate(375 997)"><path class="b" d="M9.332,1.659a28.614,28.614,0,0,1,3.733.1,4.809,4.809,0,0,1,1.763.311A3.642,3.642,0,0,1,16.59,3.837,4.809,4.809,0,0,1,16.9,5.6c0,.933.1,1.244.1,3.733a28.614,28.614,0,0,1-.1,3.733,4.809,4.809,0,0,1-.311,1.763,3.642,3.642,0,0,1-1.763,1.763,4.809,4.809,0,0,1-1.763.311c-.933,0-1.244.1-3.733.1A28.614,28.614,0,0,1,5.6,16.9a4.809,4.809,0,0,1-1.763-.311,3.642,3.642,0,0,1-1.763-1.763,4.809,4.809,0,0,1-.311-1.763c0-.933-.1-1.244-.1-3.733a28.614,28.614,0,0,1,.1-3.733,4.809,4.809,0,0,1,.311-1.763A3.724,3.724,0,0,1,2.8,2.8a1.753,1.753,0,0,1,1.037-.726A4.809,4.809,0,0,1,5.6,1.763a28.614,28.614,0,0,1,3.733-.1M9.332,0A30.637,30.637,0,0,0,5.5.1,6.4,6.4,0,0,0,3.214.518,4.059,4.059,0,0,0,1.555,1.555,4.059,4.059,0,0,0,.518,3.214,4.724,4.724,0,0,0,.1,5.5,30.637,30.637,0,0,0,0,9.332a30.637,30.637,0,0,0,.1,3.837A6.4,6.4,0,0,0,.518,15.45a4.059,4.059,0,0,0,1.037,1.659,4.059,4.059,0,0,0,1.659,1.037A6.4,6.4,0,0,0,5.5,18.56a30.637,30.637,0,0,0,3.837.1,30.637,30.637,0,0,0,3.837-.1,6.4,6.4,0,0,0,2.281-.415,4.35,4.35,0,0,0,2.7-2.7,6.4,6.4,0,0,0,.415-2.281c0-1.037.1-1.348.1-3.837a30.637,30.637,0,0,0-.1-3.837,6.4,6.4,0,0,0-.415-2.281,4.059,4.059,0,0,0-1.037-1.659A4.059,4.059,0,0,0,15.45.518,6.4,6.4,0,0,0,13.169.1,30.637,30.637,0,0,0,9.332,0m0,4.562a4.693,4.693,0,0,0-4.77,4.77,4.77,4.77,0,1,0,4.77-4.77m0,7.88A3.055,3.055,0,0,1,6.221,9.332,3.055,3.055,0,0,1,9.332,6.221a3.055,3.055,0,0,1,3.111,3.111,3.055,3.055,0,0,1-3.111,3.111m4.977-9.228A1.141,1.141,0,1,0,15.45,4.355a1.151,1.151,0,0,0-1.141-1.141"/></g></g></svg>