<?xml version="1.0" encoding="utf-8"?>
<!-- Generator: Adobe Illustrator 24.0.2, SVG Export Plug-In . SVG Version: 6.00 Build 0)  -->
<svg version="1.1" id="Camada_1" xmlns="http://www.w3.org/2000/svg" xmlns:xlink="http://www.w3.org/1999/xlink" x="0px" y="0px"
	 viewBox="0 0 690 690" style="enable-background:new 0 0 690 690;" xml:space="preserve">
<style type="text/css">
	.st0{fill:#7D8082;}
	.st1{clip-path:url(#SVGID_2_);fill:#D48281;}
	.st2{clip-path:url(#SVGID_2_);fill:#D48181;}
	.st3{clip-path:url(#SVGID_2_);fill:#D48180;}
	.st4{clip-path:url(#SVGID_2_);fill:#D4807F;}
	.st5{clip-path:url(#SVGID_2_);fill:#D4807E;}
	.st6{clip-path:url(#SVGID_2_);fill:#D47F7E;}
	.st7{clip-path:url(#SVGID_2_);fill:#D47F7D;}
	.st8{clip-path:url(#SVGID_2_);fill:#D47F7C;}
	.st9{clip-path:url(#SVGID_2_);fill:#D47E7C;}
	.st10{clip-path:url(#SVGID_2_);fill:#D47E7B;}
	.st11{clip-path:url(#SVGID_2_);fill:#D47E7A;}
	.st12{clip-path:url(#SVGID_2_);fill:#D47D7A;}
	.st13{clip-path:url(#SVGID_2_);fill:#D47D79;}
	.st14{clip-path:url(#SVGID_2_);fill:#D47C78;}
	.st15{clip-path:url(#SVGID_2_);fill:#D47C77;}
	.st16{clip-path:url(#SVGID_2_);fill:#D47B77;}
	.st17{clip-path:url(#SVGID_2_);fill:#D47B76;}
	.st18{clip-path:url(#SVGID_2_);fill:#D47B75;}
	.st19{clip-path:url(#SVGID_2_);fill:#D27A75;}
	.st20{clip-path:url(#SVGID_2_);fill:#D17A76;}
	.st21{clip-path:url(#SVGID_2_);fill:#CF7A76;}
	.st22{clip-path:url(#SVGID_2_);fill:#CE7A76;}
	.st23{clip-path:url(#SVGID_2_);fill:#CC7976;}
	.st24{clip-path:url(#SVGID_2_);fill:#CB7976;}
	.st25{clip-path:url(#SVGID_2_);fill:#CA7977;}
	.st26{clip-path:url(#SVGID_2_);fill:#C87977;}
	.st27{clip-path:url(#SVGID_2_);fill:#C77877;}
	.st28{clip-path:url(#SVGID_2_);fill:#C57877;}
	.st29{clip-path:url(#SVGID_2_);fill:#C47877;}
	.st30{clip-path:url(#SVGID_2_);fill:#C37877;}
	.st31{clip-path:url(#SVGID_2_);fill:#C17778;}
	.st32{clip-path:url(#SVGID_2_);fill:#C07778;}
	.st33{clip-path:url(#SVGID_2_);fill:#BE7778;}
	.st34{clip-path:url(#SVGID_2_);fill:#BD7778;}
	.st35{clip-path:url(#SVGID_2_);fill:#BC7678;}
	.st36{clip-path:url(#SVGID_2_);fill:#BA7678;}
	.st37{clip-path:url(#SVGID_2_);fill:#B97678;}
	.st38{clip-path:url(#SVGID_2_);fill:#B87579;}
	.st39{clip-path:url(#SVGID_2_);fill:#B67579;}
	.st40{clip-path:url(#SVGID_2_);fill:#B57579;}
	.st41{clip-path:url(#SVGID_2_);fill:#B47579;}
	.st42{clip-path:url(#SVGID_2_);fill:#B27479;}
	.st43{clip-path:url(#SVGID_2_);fill:#B17479;}
	.st44{clip-path:url(#SVGID_2_);fill:#B07479;}
	.st45{clip-path:url(#SVGID_2_);fill:#AE7379;}
	.st46{clip-path:url(#SVGID_4_);fill:#AE7379;}
	.st47{clip-path:url(#SVGID_6_);fill:#AE7379;}
	.st48{clip-path:url(#SVGID_6_);fill:#B07479;}
	.st49{clip-path:url(#SVGID_6_);fill:#B17479;}
	.st50{clip-path:url(#SVGID_6_);fill:#B37479;}
	.st51{clip-path:url(#SVGID_6_);fill:#B57579;}
	.st52{clip-path:url(#SVGID_6_);fill:#B67579;}
	.st53{clip-path:url(#SVGID_6_);fill:#B87579;}
	.st54{clip-path:url(#SVGID_6_);fill:#B97678;}
	.st55{clip-path:url(#SVGID_6_);fill:#BB7678;}
	.st56{clip-path:url(#SVGID_6_);fill:#BC7678;}
	.st57{clip-path:url(#SVGID_6_);fill:#BE7778;}
	.st58{clip-path:url(#SVGID_6_);fill:#BF7778;}
	.st59{clip-path:url(#SVGID_6_);fill:#C17778;}
	.st60{clip-path:url(#SVGID_6_);fill:#C27877;}
	.st61{clip-path:url(#SVGID_6_);fill:#C47877;}
	.st62{clip-path:url(#SVGID_6_);fill:#C57877;}
	.st63{clip-path:url(#SVGID_6_);fill:#C77877;}
	.st64{clip-path:url(#SVGID_6_);fill:#C87977;}
	.st65{clip-path:url(#SVGID_6_);fill:#C97977;}
	.st66{clip-path:url(#SVGID_6_);fill:#CB7976;}
	.st67{clip-path:url(#SVGID_6_);fill:#CC7976;}
	.st68{clip-path:url(#SVGID_6_);fill:#CD7976;}
	.st69{clip-path:url(#SVGID_6_);fill:#CE7A76;}
	.st70{clip-path:url(#SVGID_6_);fill:#D07A76;}
	.st71{clip-path:url(#SVGID_6_);fill:#D17A76;}
	.st72{clip-path:url(#SVGID_6_);fill:#D27A75;}
	.st73{clip-path:url(#SVGID_6_);fill:#D37A75;}
	.st74{clip-path:url(#SVGID_6_);fill:#D47B75;}
	.st75{clip-path:url(#SVGID_6_);fill:#D47B76;}
	.st76{clip-path:url(#SVGID_6_);fill:#D47B77;}
	.st77{clip-path:url(#SVGID_6_);fill:#D47C77;}
	.st78{clip-path:url(#SVGID_6_);fill:#D47C78;}
	.st79{clip-path:url(#SVGID_6_);fill:#D47D79;}
	.st80{clip-path:url(#SVGID_6_);fill:#D47D7A;}
	.st81{clip-path:url(#SVGID_6_);fill:#D47E7A;}
	.st82{clip-path:url(#SVGID_6_);fill:#D47E7B;}
	.st83{clip-path:url(#SVGID_6_);fill:#D47E7C;}
	.st84{clip-path:url(#SVGID_6_);fill:#D47F7C;}
	.st85{clip-path:url(#SVGID_6_);fill:#D47F7D;}
	.st86{clip-path:url(#SVGID_6_);fill:#D47F7E;}
	.st87{clip-path:url(#SVGID_6_);fill:#D4807E;}
	.st88{clip-path:url(#SVGID_6_);fill:#D4807F;}
	.st89{clip-path:url(#SVGID_6_);fill:#D48180;}
	.st90{clip-path:url(#SVGID_6_);fill:#D48181;}
	.st91{clip-path:url(#SVGID_6_);fill:#D48281;}
	.st92{fill:#444247;}
</style>
<g>
	<g>
		<circle class="st0" cx="-6200" cy="1761.5" r="4"/>
	</g>
</g>
<g>
	<g>
		<g>
			<g>
				<defs>
					<path id="SVGID_1_" d="M26.6,386.9c0.9-10.5,5.6-19.8,14.9-25.2c10.4-5.9,24.2-7,35.9-7.5c26.1-1,48.8,7.3,72.5,17.2
						c22.1,9.2,45,17.3,69.3,13.7c19.6-2.9,37.6-12.5,51.7-26.3c15.1-14.8,25.7-34.3,30.7-54.8c6.7-27.1,2-55.4-2.6-82.4
						c-2.2-12.9-4.7-25.8-7.7-38.6c-1.4-5.9-2.9-11.8-4.8-17.6c-1.4-4.4-2.5-8.8-7.6-9.8c-8.8-1.7-16.1,4.4-16.5,12.9
						c-0.3,6.8,2.1,13.3,3.8,19.8c1.8,7.1,3.5,14.3,5.3,21.4c15.5,64.1,26.8,129.7,48.2,192.2c1.3,3.7,14.1,0,13-3.5
						c-17.9-52.2-28.4-106.5-40.7-160.2c-3-13.2-6.1-26.4-9.4-39.6c-1.5-6.1-3-12.3-4.6-18.4c-0.8-3.1-1.7-6.2-2.2-9.4
						c-0.2-1.6-0.4-3.2-0.4-4.7c0-0.8,1.3-5.1,0.9-5.6c-1.8,0.5-3.6,1.1-5.5,1.6c0.4,0.6,0.7,1.3,1.1,1.9c0.2,1.4,1.1,3.3,1.6,4.7
						c1,3,1.8,6,2.7,9c1.5,5.6,2.8,11.3,4,17c2.7,12.5,5,25,7.1,37.6c4.2,26.2,7.7,53-0.1,79c-5.8,19.4-16.7,38-32.2,51.2
						c-16.5,14.1-36.1,19.5-57.5,15.5c-23.4-4.4-44.4-16.8-66.9-24.1c-24-7.7-50.1-8.3-74.6-3c-20.2,4.4-40.5,14.6-42.4,37.5
						C13.4,393.1,26.3,390.5,26.6,386.9L26.6,386.9z"/>
				</defs>
				<clipPath id="SVGID_2_">
					<use xlink:href="#SVGID_1_"  style="overflow:visible;"/>
				</clipPath>
				<rect x="13.4" y="154" class="st1" width="0.3" height="251.9"/>
				<rect x="13.7" y="154" class="st1" width="5.4" height="251.9"/>
				<rect x="19.1" y="154" class="st2" width="5.4" height="251.9"/>
				<rect x="24.5" y="154" class="st3" width="5.4" height="251.9"/>
				<rect x="29.8" y="154" class="st3" width="5.4" height="251.9"/>
				<rect x="35.2" y="154" class="st4" width="5.4" height="251.9"/>
				<rect x="40.6" y="154" class="st4" width="5.4" height="251.9"/>
				<rect x="45.9" y="154" class="st5" width="5.4" height="251.9"/>
				<rect x="51.3" y="154" class="st6" width="5.4" height="251.9"/>
				<rect x="56.7" y="154" class="st7" width="5.4" height="251.9"/>
				<rect x="62" y="154" class="st7" width="5.4" height="251.9"/>
				<rect x="67.4" y="154" class="st8" width="5.4" height="251.9"/>
				<rect x="72.8" y="154" class="st9" width="5.4" height="251.9"/>
				<rect x="78.1" y="154" class="st10" width="5.4" height="251.9"/>
				<rect x="83.5" y="154" class="st11" width="5.4" height="251.9"/>
				<rect x="88.9" y="154" class="st12" width="5.4" height="251.9"/>
				<rect x="94.2" y="154" class="st13" width="5.4" height="251.9"/>
				<rect x="99.6" y="154" class="st13" width="5.4" height="251.9"/>
				<rect x="105" y="154" class="st14" width="5.4" height="251.9"/>
				<rect x="110.3" y="154" class="st14" width="5.4" height="251.9"/>
				<rect x="115.7" y="154" class="st15" width="5.4" height="251.9"/>
				<rect x="121.1" y="154" class="st16" width="5.4" height="251.9"/>
				<rect x="126.4" y="154" class="st17" width="5.4" height="251.9"/>
				<rect x="131.8" y="154" class="st17" width="5.4" height="251.9"/>
				<rect x="137.2" y="154" class="st18" width="5.4" height="251.9"/>
				<rect x="142.5" y="154" class="st18" width="6.8" height="251.9"/>
				<rect x="149.3" y="154" class="st19" width="6.8" height="251.9"/>
				<rect x="156.1" y="154" class="st20" width="6.8" height="251.9"/>
				<rect x="162.9" y="154" class="st21" width="6.8" height="251.9"/>
				<rect x="169.7" y="154" class="st22" width="6.8" height="251.9"/>
				<rect x="176.5" y="154" class="st23" width="6.8" height="251.9"/>
				<rect x="183.3" y="154" class="st24" width="6.8" height="251.9"/>
				<rect x="190.1" y="154" class="st25" width="6.8" height="251.9"/>
				<rect x="196.9" y="154" class="st26" width="6.8" height="251.9"/>
				<rect x="203.7" y="154" class="st27" width="6.8" height="251.9"/>
				<rect x="210.5" y="154" class="st28" width="6.8" height="251.9"/>
				<rect x="217.3" y="154" class="st29" width="6.8" height="251.9"/>
				<rect x="224.1" y="154" class="st30" width="6.8" height="251.9"/>
				<rect x="230.9" y="154" class="st31" width="6.8" height="251.9"/>
				<rect x="237.7" y="154" class="st32" width="6.8" height="251.9"/>
				<rect x="244.5" y="154" class="st33" width="6.8" height="251.9"/>
				<rect x="251.3" y="154" class="st34" width="6.8" height="251.9"/>
				<rect x="258.1" y="154" class="st35" width="6.8" height="251.9"/>
				<rect x="264.9" y="154" class="st36" width="6.8" height="251.9"/>
				<rect x="271.7" y="154" class="st37" width="6.8" height="251.9"/>
				<rect x="278.5" y="154" class="st38" width="6.8" height="251.9"/>
				<rect x="285.3" y="154" class="st39" width="6.8" height="251.9"/>
				<rect x="292.1" y="154" class="st40" width="6.8" height="251.9"/>
				<rect x="298.9" y="154" class="st41" width="6.8" height="251.9"/>
				<rect x="305.7" y="154" class="st42" width="6.8" height="251.9"/>
				<rect x="312.5" y="154" class="st43" width="6.8" height="251.9"/>
				<rect x="319.3" y="154" class="st44" width="6.8" height="251.9"/>
				<rect x="326.1" y="154" class="st45" width="6.8" height="251.9"/>
				<rect x="332.9" y="154" class="st45" width="1.1" height="251.9"/>
			</g>
		</g>
	</g>
	<g>
		<g>
			<g>
				<g>
					<defs>
						<path id="SVGID_3_" d="M229.6,274.2c8.8-3.3,18.8-2.7,28-2.8c10.2-0.1,20.4-0.3,30.6-0.4c19.9-0.3,39.9-0.6,59.8-0.9
							c7.2-0.1,10.1-9.2,1.3-9.1c-21.7,0.3-43.4,0.6-65.1,1c-19.7,0.3-41.4-2-60.2,5.1c-2.5,0.9-4.8,3.9-3.1,6.4
							C222.6,276.1,227.2,275.1,229.6,274.2L229.6,274.2z"/>
					</defs>
					<clipPath id="SVGID_4_">
						<use xlink:href="#SVGID_3_"  style="overflow:visible;"/>
					</clipPath>
					<rect x="219.2" y="260" class="st46" width="1.1" height="16.2"/>
					<rect x="220.3" y="260" class="st46" width="134.5" height="16.2"/>
					<rect x="354.7" y="260" class="st46" width="3.4" height="16.2"/>
				</g>
			</g>
		</g>
	</g>
	<g>
		<g>
			<g>
				<g>
					<defs>
						<path id="SVGID_5_" d="M363.8,245.2c-12.3,80.2-24.4,162-9.4,242.7c1.1,6.2,12.6,3.2,13.1-2.1c2.6-28.2,2.8-56.5,0.4-84.7
							c-1.2-14.5-1.4-54.3-26.2-47c-2.1,0.6-5.3,2.5-5.3,5.2c0.1,10.3,10.7,15.2,19.9,13.3c11.5-2.3,18.6-13.1,26.9-20.4
							c17.2-15.2,37.9-26,60-32.2c22.1-6.2,45.5-7.8,68.1-4.2c25.2,4,45.9,16.7,69.1,26.5c29.7,12.5,61.3,16.3,93,10.7
							c8.3-1.4,5.5-11-2.6-9.6c-27,4.7-54.3,1.3-79.6-8.9c-22-8.8-41.8-21.3-65.1-26.7c-40.3-9.3-84.3-2.7-120.7,16.6
							c-10.2,5.4-19.9,11.9-28.8,19.3c-4.4,3.7-8.4,7.7-12.4,11.8c-2.1,2.1-4.7,5.4-7.6,6.5c-2.9,1.1-7,0.4-7.1-3.6
							c-1.8,1.7-3.5,3.5-5.3,5.2c9.6-2.8,11.4,50.9,11.6,55.9c1.1,22.3,0.5,44.7-1.6,67c4.4-0.7,8.7-1.4,13.1-2.1
							c-14.8-79.7-2.5-160.8,9.7-240C378,237.4,364.8,238.9,363.8,245.2L363.8,245.2z"/>
					</defs>
					<clipPath id="SVGID_6_">
						<use xlink:href="#SVGID_5_"  style="overflow:visible;"/>
					</clipPath>
					<rect x="336.3" y="237.4" class="st47" width="1.8" height="256.6"/>
					<rect x="338" y="237.4" class="st47" width="4.9" height="256.6"/>
					<rect x="342.9" y="237.4" class="st48" width="4.9" height="256.6"/>
					<rect x="347.8" y="237.4" class="st49" width="4.9" height="256.6"/>
					<rect x="352.6" y="237.4" class="st50" width="4.9" height="256.6"/>
					<rect x="357.5" y="237.4" class="st51" width="4.9" height="256.6"/>
					<rect x="362.4" y="237.4" class="st52" width="4.9" height="256.6"/>
					<rect x="367.3" y="237.4" class="st53" width="4.9" height="256.6"/>
					<rect x="372.1" y="237.4" class="st54" width="4.9" height="256.6"/>
					<rect x="377" y="237.4" class="st55" width="4.9" height="256.6"/>
					<rect x="381.9" y="237.4" class="st56" width="4.9" height="256.6"/>
					<rect x="386.7" y="237.4" class="st57" width="4.9" height="256.6"/>
					<rect x="391.6" y="237.4" class="st58" width="4.9" height="256.6"/>
					<rect x="396.5" y="237.4" class="st59" width="4.9" height="256.6"/>
					<rect x="401.3" y="237.4" class="st60" width="4.9" height="256.6"/>
					<rect x="406.2" y="237.4" class="st61" width="4.9" height="256.6"/>
					<rect x="411.1" y="237.4" class="st62" width="4.9" height="256.6"/>
					<rect x="415.9" y="237.4" class="st63" width="4.9" height="256.6"/>
					<rect x="420.8" y="237.4" class="st64" width="4.9" height="256.6"/>
					<rect x="425.7" y="237.4" class="st65" width="4.9" height="256.6"/>
					<rect x="430.5" y="237.4" class="st66" width="4.9" height="256.6"/>
					<rect x="435.4" y="237.4" class="st67" width="4.9" height="256.6"/>
					<rect x="440.3" y="237.4" class="st68" width="4.9" height="256.6"/>
					<rect x="445.2" y="237.4" class="st69" width="4.9" height="256.6"/>
					<rect x="450" y="237.4" class="st70" width="4.9" height="256.6"/>
					<rect x="454.9" y="237.4" class="st71" width="4.9" height="256.6"/>
					<rect x="459.8" y="237.4" class="st72" width="4.9" height="256.6"/>
					<rect x="464.6" y="237.4" class="st73" width="4.9" height="256.6"/>
					<rect x="469.5" y="237.4" class="st74" width="4.9" height="256.6"/>
					<rect x="474.4" y="237.4" class="st74" width="8.5" height="256.6"/>
					<rect x="482.9" y="237.4" class="st75" width="8.5" height="256.6"/>
					<rect x="491.4" y="237.4" class="st75" width="8.5" height="256.6"/>
					<rect x="499.9" y="237.4" class="st76" width="8.5" height="256.6"/>
					<rect x="508.4" y="237.4" class="st77" width="8.5" height="256.6"/>
					<rect x="516.9" y="237.4" class="st78" width="8.5" height="256.6"/>
					<rect x="525.4" y="237.4" class="st78" width="8.5" height="256.6"/>
					<rect x="533.9" y="237.4" class="st79" width="8.5" height="256.6"/>
					<rect x="542.4" y="237.4" class="st79" width="8.5" height="256.6"/>
					<rect x="550.9" y="237.4" class="st80" width="8.5" height="256.6"/>
					<rect x="559.4" y="237.4" class="st81" width="8.5" height="256.6"/>
					<rect x="567.9" y="237.4" class="st82" width="8.5" height="256.6"/>
					<rect x="576.4" y="237.4" class="st83" width="8.5" height="256.6"/>
					<rect x="584.9" y="237.4" class="st84" width="8.5" height="256.6"/>
					<rect x="593.4" y="237.4" class="st85" width="8.5" height="256.6"/>
					<rect x="601.9" y="237.4" class="st85" width="8.5" height="256.6"/>
					<rect x="610.4" y="237.4" class="st86" width="8.5" height="256.6"/>
					<rect x="618.9" y="237.4" class="st87" width="8.5" height="256.6"/>
					<rect x="627.4" y="237.4" class="st88" width="8.5" height="256.6"/>
					<rect x="635.9" y="237.4" class="st88" width="8.5" height="256.6"/>
					<rect x="644.4" y="237.4" class="st89" width="8.5" height="256.6"/>
					<rect x="652.9" y="237.4" class="st89" width="8.5" height="256.6"/>
					<rect x="661.4" y="237.4" class="st90" width="8.5" height="256.6"/>
					<rect x="669.9" y="237.4" class="st91" width="8.5" height="256.6"/>
					<rect x="678.4" y="237.4" class="st91" width="3.3" height="256.6"/>
				</g>
			</g>
		</g>
	</g>
	<g>
		<path class="st92" d="M52,258.2c-0.2-0.1-0.9-0.2-1.4,0.5c-0.2,0.2-0.4,0.6-0.5,1c-0.1,0.5-0.4,0.6-0.6,0.8
			c-0.1,0-0.2,0.1-0.6,0.1c-0.2,0-0.3,0-0.5-0.1c-0.2,0-0.4-0.1-0.5-0.1l-31.5-10c-0.5-0.2-1-0.5-1.3-0.7c-0.2-0.2-0.5-0.5-0.4-1.1
			l2.8-8.7c0-0.1,0.1-0.2,0.1-0.3c0.1-0.1,0.1-0.3,0.1-0.3c0.2-0.2,0.4-0.4,0.5-0.6c0,0,0.1-0.1,0.3-0.1c0.2,0,0.4-0.1,0.7-0.2
			l0.2-0.1l0.6-0.3c0.2-0.2,0.4-0.5,0.4-1l-0.1-0.8l-0.5-0.2c-0.4-0.2-0.9-0.3-1.4-0.5l-1-0.3l-0.2,0c-0.6,0.1-1.1,0.4-1.4,0.9
			c-0.2,0.3-0.3,0.6-0.4,1c-0.1,0.3-0.2,0.7-0.3,1l-8.5,26.8c-0.1,0.3-0.2,0.5-0.3,0.7c-0.1,0.3-0.2,0.6-0.3,0.9
			c-0.1,0.4-0.2,0.8-0.2,1.1c0,0.3,0.2,0.9,1.2,1.4l1.7,0.5c0.3,0.1,0.6,0.1,0.9,0.1c0.5-0.1,0.7-0.5,0.8-0.7l0.2-0.6l-0.3-0.7
			c-0.1-0.2-0.2-0.4-0.4-0.5c-0.1-0.1-0.1-0.1-0.2-0.3c-0.2-0.2-0.3-0.4-0.4-0.6c0-0.1-0.1-0.2,0-0.3c0.5-1.7,1-3.3,1.5-4.9
			c0.5-1.6,0.9-3,1.4-4.4c0.2-0.6,0.5-0.8,0.5-0.8c0.3-0.1,0.7-0.2,1.1-0.2c0.2,0,0.4,0,0.5,0.1L46.9,266c0.2,0.1,0.3,0.1,0.6,0.3
			c0,0.1,0.1,0.2,0.1,0.4l0,0.5c-0.1,0.4-0.2,0.7-0.1,1c0.1,0.9,0.6,1.2,0.9,1.3c0.2,0.1,0.4,0.1,0.5,0.1l0.6,0.1l0.4-0.7
			c0.1-0.1,0.2-0.3,0.2-0.5l2.7-8.4c0.2-0.7,0-1.2-0.3-1.5C52.4,258.4,52.2,258.3,52,258.2z M51.8,260.2l0.1-0.2l0.3,0
			C52.1,260.1,52,260.2,51.8,260.2z"/>
		<path class="st92" d="M82.5,192.6c-0.4-0.2-0.9-0.1-1.5,0.3c-0.2,0.1-0.4,0.2-0.7,0.3c0,0-0.2,0.1-0.8,0
			c-3.6-0.4-7.2-0.9-10.7-1.5c-3.6-0.6-7.1-1.2-10.6-1.8c-2.8-0.5-5.6-1-8.4-1.5c-2.8-0.5-5.7-0.9-8.4-1.3c-0.2-0.1-0.5-0.1-0.9-0.1
			c-0.5-0.1-1.3,0-2.2,0.7c-0.3,0.3-0.5,0.6-0.6,1c-0.1,0.2-0.1,0.4-0.2,0.8c0,0.2-0.1,0.5,0,0.7l-0.1,0l0.1,0.1
			c0,0.6,0.2,1.1,0.6,1.6c0.3,0.4,0.4,0.6,0.6,0.7c0.8,0.8,1.6,1.7,2.3,2.5c0.8,0.9,1.6,1.7,2.3,2.5l9.8,10.9c1,1.1,1.7,2,2.4,2.6
			l2,2.2c0.7,0.8,1.6,1.7,2.6,2.9c1,1.1,2.5,2.7,4.2,4.6c0.2,0.2,0.3,0.4,0.4,0.6c0.2,0.4,0.3,0.7,0.1,1.2l-0.1,0.6
			c-0.2,0.9,0.3,1.4,0.8,1.6c0.2,0.1,0.3,0.1,0.5,0.1c0.1,0,0.3,0,0.4-0.1l0.6-0.4l3-5.6l-0.7-0.5c-0.8-0.6-1.5-0.3-1.9,0
			c-0.3,0.2-0.5,0.4-0.6,0.6c-0.1,0.1-0.2,0.2-0.2,0.2c0,0,0.1,0.1-0.3-0.1c-0.1,0-0.1-0.1-0.1-0.1l-12.6-13.8l5.2-9.5l8.6,1.4
			c1.2,0.2,2.2,0.4,3.1,0.5c0.9,0.2,1.8,0.3,2.7,0.4c0.6,0.1,1.2,0.2,1.8,0.3c0.6,0.2,1.3,0.3,2,0.5c0.4,0.1,0.4,0.2,0.5,0.4
			c0.1,0.2,0.1,0.5,0.3,0.7c0.3,0.4,0.8,0.7,1.3,0.7c0.5,0,1-0.2,1.4-0.8l2.8-5.1l0.2-0.5l-0.1-0.4C83.3,193.1,83,192.7,82.5,192.6z
			 M51.7,202.8l-0.5-0.6c-0.7-0.8-1.9-2.1-3.5-3.8c-1.2-1.4-2.9-3.2-4.9-5.4c2,0.3,4,0.5,6,0.8c2.4,0.3,4.9,0.7,7.3,1.1L51.7,202.8z
			"/>
		<path class="st92" d="M125.6,137l-0.3,0.1c-0.3,0.1-0.5,0.3-0.8,0.5c-0.2,0.1-0.3,0.3-0.6,0.5c-0.3,0.2-0.6,0.4-1.1,0l-22.4-19.7
			c-0.5-0.4-1-0.9-1.4-1.3c-0.5-0.5-0.9-0.9-1.3-1.2l-0.7-0.6c-0.3-0.2-0.5-0.5-0.8-0.8c-0.1-0.1-0.2-0.2-0.2-0.2c0.9-1,0.6-2,0-2.5
			c-0.5-0.5-1.3-0.5-1.8,0c-0.2,0.1-0.3,0.3-0.4,0.4l-4,4.5c-0.5,0.5-0.4,1.3,0.1,1.8c0.2,0.2,0.5,0.4,1,0.3l0.4-0.1
			c0,0.1,0.2,0.5,0.6,1.1c0.3,0.7,0.6,1.2,0.8,1.6c1.2,2.3,2.5,4.5,3.7,6.9c1.3,2.3,2.7,4.9,4.2,7.7L106,146l-0.1,0
			c-0.3-0.1-0.6-0.2-0.9-0.4c-3.8-1.4-7.6-2.7-11.3-4.2c-3.7-1.4-7.5-2.8-11.2-4.3c-0.8-0.3-1.5-0.6-2.2-0.9
			c-0.7-0.3-1.4-0.6-2.2-0.9c-0.3-0.1-0.7-0.3-1.1-0.4c-0.4-0.2-0.9-0.3-1.3-0.4c-1.3-0.2-2,0.3-2.4,0.8l-3.6,4.1
			c-0.5,0.6-0.4,1.2-0.3,1.4c0.1,0.2,0.3,0.5,0.5,0.7c0.4,0.4,1,0.4,1.5,0.2c0.3-0.1,0.6-0.3,0.9-0.7c0.1-0.1,0.1-0.1,0.1-0.1
			c0.1,0,0.2,0.1,0.3,0.2c0.2,0.1,0.5,0.3,0.7,0.5c0.2,0.2,0.5,0.4,0.7,0.6l3.3,2.9c1.4,1.2,2.9,2.6,4.6,4.1l10.8,9.7
			c1.7,1.5,3.1,2.8,4.4,3.9l2.4,2.1c0.4,0.3,0.5,0.6,0.3,1.1l0,0.2c-0.1,0.2-0.2,0.3-0.2,0.4l-0.1,0.2l0.1,0.9l0.8,0.6l0.9-0.1
			l3.8-4.4l0-0.4c0-0.6-0.5-1.1-1.1-1.1c-0.2,0-0.3,0-0.4,0l-0.3,0.1c-0.2,0.1-0.4,0.2-0.6,0.4l-0.2,0.1c-0.3,0.2-0.5,0.2-0.5,0.2
			c-0.1,0-0.3-0.1-0.5-0.3l-8.7-7.6c-1.7-1.5-3.3-2.9-5-4.4c-1.7-1.5-3.2-2.9-4.6-4.1l-4.5-4c0,0,0,0,0,0c0.6,0.2,1.3,0.3,1.8,0.5
			c1.1,0.4,2.3,0.8,3.4,1.2l3.4,1.1c3.2,1.1,6.3,2.2,9.5,3.3c3.1,1.1,6.3,2.3,9.3,3.5c0.3,0.1,0.5,0.2,0.6,0.2l0.3,0.1
			c0.1,0,0.3,0.1,0.6,0.2l0.8,0.2c0.2,0,0.4,0.1,0.5,0.1c0.3,0.1,0.7,0.1,1.2-0.1c0.3-0.2,0.6-0.4,1-0.8c0.7-0.9,0.6-1.5,0.4-1.9
			c-0.2-0.3-0.3-0.6-0.3-0.7c-0.1-0.1-0.1-0.3-0.3-0.5l-0.1-0.2c-0.1-0.1-0.2-0.4-0.4-0.9l-14-25.2l1.1,0.9c0.5,0.4,1,0.8,1.3,1.1
			c0.8,0.6,1.5,1.3,2.3,1.9c0.8,0.6,1.5,1.3,2.3,2c1.5,1.3,3,2.6,4.5,4c1.5,1.3,2.9,2.6,4.4,4c1.1,0.9,2.3,2,3.6,3.1
			c1.3,1.1,2.4,2.1,3.3,3c0.2,0.2,0.2,0.3,0.2,0.3c-0.2,0.4-0.4,0.7-0.5,1.1c0,0.1-0.1,0.2-0.1,0.3c-0.1,0.2-0.2,0.4-0.2,0.6
			c-0.1,0.5,0,0.8,0.1,1c0.1,0.2,0.4,0.6,1,0.7l0.6,0.1l7.1-8.1l-0.2-0.6C126.8,137.3,126.2,136.9,125.6,137z M70.6,139.9
			L70.6,139.9C70.6,139.9,70.6,139.9,70.6,139.9L70.6,139.9z"/>
		<path class="st92" d="M176.5,95.3c-0.2,0-0.5,0-0.7-0.1c0,0-0.2,0-0.7-0.4c-3.1-1.9-6.1-3.9-9.1-5.9c-3-2-5.9-4.1-8.9-6.1
			c-2.3-1.6-4.6-3.3-7-4.9c-2.4-1.6-4.7-3.2-7.1-4.7c-0.2-0.1-0.4-0.3-0.7-0.4c-0.4-0.3-1.2-0.6-2.3-0.3c-0.4,0.2-0.7,0.4-1,0.6
			c-0.1,0.1-0.3,0.3-0.5,0.6c-0.1,0.2-0.2,0.4-0.3,0.6l-0.1,0l0,0.1c-0.2,0.5-0.3,1.1-0.2,1.7c0.1,0.4,0.2,0.7,0.2,0.9
			c0.4,1.1,0.7,2.2,1,3.2c0.3,1.1,0.7,2.2,1.1,3.2l4.2,14c0.4,1.4,0.8,2.5,1,3.4l0.9,2.8c0.3,1,0.7,2.3,1.2,3.7
			c0.5,1.5,1.1,3.5,1.9,6c0.1,0.2,0.1,0.5,0.1,0.7c0,0.4-0.1,0.8-0.4,1.1l-0.4,0.5c-0.5,0.8-0.3,1.4,0,1.8c0.2,0.2,0.5,0.4,0.8,0.4
			l0.7-0.1l5.1-3.9l-0.5-0.8c-0.4-0.7-1.1-1-1.7-0.8c-0.3,0.1-0.6,0.2-0.7,0.3c-0.2,0.1-0.3,0.1-0.3,0.1c0,0-0.1,0-0.3-0.3
			l-5.6-17.9l8.7-6.4l7.2,4.9c1,0.7,1.8,1.2,2.5,1.8c0.7,0.5,1.5,1,2.3,1.5c0.5,0.3,1,0.7,1.5,1c0.5,0.4,1,0.8,1.6,1.3
			c0.3,0.2,0.3,0.4,0.3,0.5c0,0.2-0.1,0.5,0,0.8c0.2,0.7,0.6,1,0.9,1.2c0.5,0.2,1,0.2,1.6-0.1l4.8-3.5l0.3-0.4l0.1-0.3
			c0.1-0.5,0-1-0.4-1.3C177.6,95.3,177.1,95.2,176.5,95.3z M145.7,91.9l-0.2-0.7c-0.3-1-0.9-2.7-1.6-5c-0.5-1.7-1.3-4.1-2.1-7
			c1.7,1.1,3.4,2.2,5.1,3.2c2.1,1.3,4.1,2.7,6.1,4.1L145.7,91.9z"/>
		<path class="st92" d="M236.2,64.7l-0.6-0.1l-0.4,0.2c-0.6,0.2-1.3,0.2-2.1,0c-0.9-0.3-1.8-0.6-2.4-1c-0.6-0.4-1.2-0.8-1.7-1.2
			c-0.6-0.5-1.2-0.9-1.7-1.4c-0.6-0.5-1.1-1-1.7-1.6l-1.7-1.9c-0.6-0.6-1.2-1.3-1.8-1.8c-0.6-0.6-1.3-1.1-2.1-1.6
			c-1.1-0.7-2.4-1.1-3.7-1.1c-0.9,0-1.8-0.1-2.7,0c0.3-0.3,0.5-0.6,0.7-0.9c0.4-0.6,0.9-1.1,1.4-1.7c0.7-1,1.1-2.1,1.4-3.4
			c0.3-1.2,0.3-2.4,0.2-3.6c-0.1-1.2-0.5-2.3-1.1-3.4c-0.6-1.1-1.3-2-2.3-2.9c-1-0.8-2.1-1.4-3.2-1.7c-1.1-0.3-2.3-0.5-3.5-0.4
			c-0.9,0-1.8,0.2-2.7,0.4c-0.8,0.2-1.6,0.4-2.5,0.7c-0.7,0.2-1.3,0.5-2,0.8l-12,5.5c-0.2,0.1-0.3,0.2-0.4,0.2l-0.7,0.7l0.3,0.6
			c0,0.1,0.1,0.3,0.1,0.5c0.1,0.2,0.4,0.8,1.3,0.7c0.3,0,0.7-0.1,1-0.2c0.2-0.1,0.4-0.1,0.6-0.2c0.1,0,0.3,0,0.4,0
			c0.2,0.1,0.4,0.4,0.6,0.8c0.4,0.8,1,2.2,1.9,4.1c0.9,1.9,1.9,4.1,3,6.6c1.1,2.5,2.3,5,3.5,7.7c1.2,2.6,2.3,5.1,3.3,7.3l2.5,5.5
			c0.7,1.4,1,2.2,1,2.2c0.3,0.7,1,1.1,1.8,1.1c0,0,0,0,0,0c0.3,0,0.7-0.1,1.1-0.3c0.4-0.1,0.7-0.3,1.1-0.5c0.4-0.2,0.7-0.5,1-0.8
			c0.4-0.5,0.6-1.2,0.3-1.7L206,63.9c-0.9-2-1.8-4-2.8-6c-0.9-2-1.9-4-2.8-6l-4.6-10c0.1-0.1,0.4-0.2,0.7-0.3c0.5-0.2,1-0.5,1.6-0.7
			c0.6-0.3,1.1-0.5,1.6-0.8c0.5-0.2,0.8-0.4,0.9-0.4c0.7-0.3,1.3-0.5,1.8-0.6c0.6-0.1,1.3-0.2,1.9-0.2c0.7,0,1.3,0.1,1.9,0.3
			c0.7,0.1,1.4,0.4,2,0.8c0.6,0.4,1.1,0.9,1.5,1.5c0.5,0.7,1,1.6,1.4,2.5c0.4,0.9,0.7,1.8,1,2.7c0.4,1.4,0.2,2.6-0.6,3.7
			c-0.7,1-1.4,2-2.2,2.8c-0.8,0.8-1.7,1.5-2.7,2.1c-0.7,0.4-1.3,0.8-1.9,1.4l-0.3,0.2c-0.3,0.4-0.4,0.9-0.2,1.3l0.2,0.5l0.4,0.1
			c0.3,0.1,0.6,0.1,1-0.1l0.8-0.6c1.1-0.8,2.3-1.3,3.6-1.3c2.1-0.1,3.9,0.6,5.5,2c0.9,0.8,1.8,1.7,2.8,2.8c1,1,1.9,2,2.8,2.9
			c1.1,1.1,2.5,2.1,4.2,2.9c1.7,0.8,3.3,1.3,4.9,1.5c0.9,0.1,1.8,0.1,2.7-0.2c0.8-0.2,1.6-0.6,2.3-1.1l0.5-0.3
			c0.2-0.1,0.3-0.3,0.5-0.4l0.5-0.3l0-0.6C237.1,65.2,236.4,64.8,236.2,64.7z"/>
		<path class="st92" d="M297.4,48c-0.2-0.1-0.4-0.2-0.7-0.3c0,0-0.2-0.1-0.5-0.6c-2-3-4-6-5.9-9c-1.9-3.1-3.8-6.1-5.7-9.2
			c-1.5-2.4-2.9-4.8-4.4-7.3c-1.5-2.5-3-4.9-4.5-7.2c-0.1-0.2-0.3-0.5-0.5-0.7c-0.3-0.4-0.8-1-2-1.2c-0.4,0-0.8,0-1.2,0.2
			c-0.2,0.1-0.4,0.2-0.7,0.4c-0.2,0.1-0.4,0.3-0.5,0.4l0-0.1l0,0.1c-0.4,0.4-0.7,0.9-0.9,1.5c-0.1,0.4-0.2,0.7-0.2,0.9
			c-0.1,1.2-0.2,2.3-0.4,3.4c-0.1,1.1-0.3,2.3-0.3,3.4l-1.8,14.6c-0.2,1.4-0.3,2.6-0.4,3.5l-0.3,2.9c-0.1,1.1-0.3,2.4-0.4,3.9
			c-0.2,1.5-0.4,3.6-0.7,6.2c0,0.3-0.1,0.5-0.2,0.7c-0.2,0.5-0.5,0.7-0.8,0.9l-0.5,0.3c-0.8,0.5-0.9,1.2-0.7,1.7
			c0.1,0.3,0.3,0.5,0.6,0.7l0.7,0.2l6.2-1.5l-0.1-0.9c-0.1-0.8-0.6-1.4-1.2-1.4c-0.3-0.1-0.7-0.1-0.8,0c-0.2,0-0.3,0-0.3,0
			c0,0,0,0-0.1-0.3c0-0.1,0-0.1,0-0.1l2.1-18.6l10.5-2.3l4.6,7.4c0.6,1,1.2,1.9,1.6,2.6c0.5,0.8,1,1.5,1.5,2.3
			c0.3,0.5,0.6,1,0.9,1.5c0.3,0.6,0.6,1.2,0.9,1.8c0.2,0.3,0.1,0.4,0,0.6c-0.1,0.2-0.3,0.4-0.3,0.7c-0.1,0.7,0.2,1.2,0.4,1.4
			c0.3,0.4,0.8,0.6,1.6,0.5l5.7-1.3l0.5-0.2l0.2-0.3c0.3-0.4,0.4-0.9,0.2-1.3C298.4,48.5,298,48.2,297.4,48z M270.6,32.5l0.1-0.8
			c0.1-1.1,0.3-2.8,0.6-5.2c0.2-1.8,0.5-4.2,0.9-7.2c1.1,1.7,2.2,3.3,3.4,5c1.4,2,2.7,4.1,3.9,6.2L270.6,32.5z"/>
		<path class="st92" d="M401,7.8c-0.3-0.2-0.6-0.3-1.1-0.3l-22.3-2.2c-1-0.1-1.4,0.5-1.4,0.6c-0.2,0.3-0.2,0.6-0.2,0.9
			c0,0.5,0.3,0.9,0.7,1.2l0.2,0.1c0.2,0.1,0.5,0.1,0.9,0.2c0.3,0,0.6,0.2,0.8,0.4c0.2,0.2,0.3,0.5,0.3,0.7l-0.9,8.3
			c-0.2,2-0.5,3.9-0.7,5.9c-0.2,2-0.4,4-0.6,5.9l-1.6,16.1c0,1.1,0.5,2,1.7,2.4c0.4,0.1,0.7,0.2,1,0.2c0.2,0,0.5,0,0.8,0
			c0.1,0,0.1,0,0.2,0c1,0,1.8-0.6,2.2-1.5c0.1-0.3,0.2-0.6,0.3-0.9l0.2-2c0.1-1.2,0.3-2.7,0.5-4.4l1.1-11c0-0.4,0.1-0.7,0.1-0.8
			l8.8,0.9l0.1-0.1c0,0.2,0.1,0.5,0.3,0.7c0.2,0.4,0.5,0.7,0.9,0.8l0.7,0.1l0.4-0.3c0.3-0.2,0.6-0.6,0.6-1.1
			c0.1-0.4,0.2-0.9,0.2-1.5l0.1-1.3c0.1-0.7-0.3-1.1-0.5-1.3c-0.2-0.2-0.7-0.4-1.3-0.1l-0.3,0.2c-0.3,0.3-0.5,0.6-0.7,1
			c-0.1,0.1-0.3,0.2-0.6,0.2c-0.1,0-0.3,0.1-0.4,0.1c-0.2,0-0.3,0-0.5,0l-7.5-0.8l1.6-16l12.5,1.2c0.1,0.1,0.1,0.2,0.2,0.2
			c0.1,0.2,0.2,0.5,0.3,0.8l0.1,0.5c0.1,0.3,0.1,0.6,0.2,0.8c0.1,0.3,0.3,0.6,0.5,0.8c0.4,0.5,1,0.7,1.5,0.5
			c0.3-0.1,1.1-0.4,1.2-1.6l0-0.1l0-0.1c0-0.5,0-1,0-1.4c0-0.5,0-1,0.1-1.6C401.7,9,401.7,8.2,401,7.8z"/>
		<path class="st92" d="M459.4,24.8c-0.6-1-1.4-1.9-2.4-2.6c-0.7-0.6-1.5-1.1-2.2-1.5c-0.7-0.4-1.5-0.8-2.3-1.1
			c-0.6-0.3-1.3-0.5-2-0.7l-12.6-3.8c-0.2-0.1-0.3-0.1-0.5-0.1l-0.9,0.1l-0.2,0.6c-0.1,0.1-0.1,0.3-0.2,0.4
			c-0.1,0.3-0.1,0.9,0.5,1.4c0.2,0.2,0.6,0.4,0.9,0.5c0.2,0.1,0.4,0.1,0.5,0.2c0.1,0.1,0.2,0.2,0.3,0.3c0.1,0.2,0.1,0.5-0.1,1
			c-0.3,0.9-0.7,2.3-1.3,4.4c-0.6,2-1.3,4.4-2.1,6.9c-0.8,2.6-1.6,5.3-2.4,8.1c-0.8,2.8-1.6,5.3-2.3,7.7l-2.4,8.1
			c-0.2,0.8,0,1.5,0.6,2c0.2,0.2,0.6,0.4,1,0.5c0.4,0.1,0.8,0.2,1.2,0.3c0.5,0.1,0.9,0.1,1.3,0c0.7-0.1,1.2-0.5,1.4-1.1l4-13.3
			c0.6-2.1,1.3-4.2,1.9-6.4c0.6-2.1,1.3-4.3,1.9-6.3l3.2-10.5c0.2,0,0.4,0.1,0.7,0.2c0.5,0.1,1.1,0.3,1.7,0.5
			c0.6,0.2,1.2,0.4,1.9,0.5c0.4,0.1,0.7,0.2,0.8,0.2c0.7,0.2,1.3,0.5,1.8,0.8c0.5,0.3,1.1,0.7,1.5,1.1c0.5,0.5,0.9,0.9,1.3,1.5
			c0.4,0.6,0.8,1.2,1,1.9c0.2,0.7,0.3,1.4,0.2,2.1c-0.1,0.9-0.3,1.9-0.6,2.8c-0.3,1-0.7,1.9-1.1,2.7c-0.7,1.3-1.6,2.1-2.9,2.4
			c-1.2,0.3-2.4,0.5-3.5,0.6c-1.1,0.1-2.3,0-3.4-0.2c-0.8-0.2-1.6-0.2-2.4-0.2l-0.1,0l-0.2,0c-0.5,0.1-0.9,0.4-1,0.9
			c-0.2,0.6,0.1,1.2,0.7,1.4l1.1,0.1c1.4,0.1,2.6,0.6,3.6,1.4c1.7,1.3,2.6,3,2.8,5.2c0.1,1.2,0.2,2.5,0.2,3.9c0.1,1.4,0.1,2.8,0.2,4
			c0.1,1.6,0.5,3.3,1.2,5c0.7,1.7,1.6,3.2,2.7,4.3c0.6,0.7,1.3,1.3,2.1,1.6c0.8,0.3,1.6,0.6,2.5,0.7l0.6,0.1c0.2,0,0.4,0,0.7,0
			l0.6,0.1l0.4-0.5c0.5-0.6,0.2-1.3,0.1-1.6l-0.3-0.5l-0.4-0.2c-0.6-0.3-1.1-0.7-1.6-1.4c-0.5-0.8-0.9-1.6-1.2-2.4
			c-0.2-0.7-0.4-1.3-0.5-2c-0.1-0.7-0.3-1.5-0.4-2.2c-0.1-0.7-0.2-1.5-0.2-2.3c0-0.8-0.1-1.7-0.1-2.5c0-0.9-0.1-1.7-0.2-2.6
			c-0.1-0.9-0.2-1.7-0.5-2.6c-0.4-1.3-1.1-2.4-2-3.3c-0.6-0.6-1.3-1.2-2-1.8c0.4-0.1,0.8-0.1,1.2-0.2l2.2-0.4
			c1.2-0.3,2.3-0.9,3.3-1.6c1-0.7,1.8-1.6,2.5-2.6c0.7-1,1.2-2.1,1.5-3.3c0.3-1.2,0.4-2.4,0.2-3.7C460.5,27,460.1,25.9,459.4,24.8z"
			/>
		<path class="st92" d="M524.3,50.2L505.2,40c-0.4-0.2-0.9-0.2-1.3,0.1c-0.2,0.1-0.3,0.3-0.5,0.5l-0.2,0.6l0.4,1l0.2,0.1
			c0.1,0.2,0.3,0.3,0.5,0.4c0.1,0.1,0.2,0.2,0.3,0.3c0.3,0.2,0.3,0.4,0.3,0.4c0,0.3,0,0.6-0.1,0.9c0,0,0,0.1-0.2,0.5
			c-0.3,0.6-0.9,1.8-1.7,3.4l-3,5.7c-1.1,2.2-2.4,4.4-3.7,6.8l-6.6,12.1c-0.8,1.5-1.4,2.5-1.6,2.9c-0.3,0.5-0.4,1-0.5,1.5
			c-0.2,0.9,0.2,1.6,0.6,2c0.1,0.1,0.2,0.2,0.2,0.2c0.2,0.2,0.3,0.3,0.5,0.4l16,8.5c0.3,0.1,0.6,0.3,0.9,0.3l0.5,0l0.8-0.8
			c0.2-0.2,0.3-0.3,0.5-0.4l1.3-1.2c0.4-0.4,0.9-0.8,1.3-1.2l0.5-0.5l-0.4-1.2l-0.6-0.1c-0.2,0-0.4-0.1-0.7,0
			c-0.2,0-0.4,0.1-0.6,0.1c-0.2,0-0.4,0.1-0.4,0.1l-0.1,0c-0.2,0.1-0.4,0.2-0.6,0.3c-0.2,0.1-0.4,0.2-0.4,0.3
			c-0.2,0.1-0.4,0.2-0.6,0.3c-0.1,0.1-0.2,0.1-0.4,0.2c-0.6,0.3-1.2,0.4-2,0.1c-0.2-0.1-0.4-0.1-0.6-0.2l-8.8-4.7
			c-0.5-0.2-0.9-0.5-1.4-0.8c0-0.1,0.1-0.2,0.1-0.2c0-0.1,0.2-0.5,0.7-1.3l7.8-14.6l7.4,3.9c0.2,0.2,0.3,0.5,0.4,0.6
			c0,0.2,0.1,0.5,0.2,0.7c0,0.1,0.1,0.2,0.1,0.3l0.1,0.3l0.2,0.2c0.4,0.4,0.8,0.4,1.1,0.4l0.6-0.1l2.6-4.9l-1.2-0.6
			c-0.4-0.2-0.8-0.2-1.3,0.1l-0.3,0.1c-0.4,0.3-0.9,0.4-1.4,0.3l-7-3.7l0-0.1c0.5-1.1,1.1-2.3,1.7-3.4c0.6-1.1,1.2-2.3,1.8-3.4
			c0.6-1.2,1.2-2.3,1.9-3.4c0.6-1.1,1.3-2.3,1.9-3.5c0.1-0.1,0.1-0.2,0.4-0.2l1,0.6c0.7,0.4,1.5,0.8,2.4,1.2
			c0.9,0.5,1.8,0.9,2.8,1.4l2.3,1.2c0.2,0.1,0.4,0.2,0.5,0.3c0.2,0.1,0.3,0.2,0.5,0.3c0.8,0.7,1.1,1.5,1,2.8l0,1
			c0,0.3,0.1,0.6,0.3,1c0.3,0.4,0.7,0.6,1.2,0.7c0.5,0,0.9-0.2,1.4-0.8l0.2-0.5c0.1-0.5,0.3-1,0.4-1.5c0.1-0.5,0.3-1,0.4-1.4
			c0.2-0.6,0.3-0.9,0.2-1.3C525.4,50.8,524.9,50.5,524.3,50.2z"/>
		<path class="st92" d="M568.2,79.7l-7.2-5.5c-0.4-0.3-1-0.4-1.5-0.1c-0.2,0.1-0.4,0.3-0.6,0.5c-0.1,0.2-0.4,0.8,0,1.4
			c0.1,0.3,0.4,0.6,0.7,0.9c0.4,0.3,0.5,0.6,0.5,0.9L538.6,106c-0.1,0.2-0.3,0.3-0.4,0.4l-0.1,0l-0.1,0c-0.2,0-0.4,0-0.8-0.3
			c-0.3-0.3-0.7-0.4-0.9-0.5c-0.7-0.3-1.5,0.1-1.8,0.9c-0.1,0.2-0.2,0.9,0.6,1.5l7.1,5.4c0.3,0.2,0.6,0.3,1,0.3c0.1,0,0.3,0,0.4-0.1
			l0.3-0.2c0.6-0.5,0.8-1.3,0.4-1.9c-0.1-0.3-0.4-0.5-0.6-0.7c-0.4-0.3-0.5-0.6-0.5-0.8c0-0.1,0.1-0.1,0.1-0.2l21.9-28.6l0,0
			c0.2,0,0.5,0,0.9,0.3c0.3,0.2,0.6,0.4,0.9,0.4c0.9,0.3,1.3-0.2,1.5-0.4c0.1-0.1,0.2-0.3,0.3-0.5c0.1-0.3,0.1-0.7,0-1.1
			C568.5,80,568.3,79.8,568.2,79.7z"/>
		<path class="st92" d="M584,149c-0.3-0.4-0.4-0.6-0.4-0.9c0-0.1,0-0.3,0.2-0.6c0.1-0.1,0.2-0.3,0.3-0.4c0.1-0.1,0.3-0.3,0.4-0.4
			l24.3-22.4c0.5-0.3,0.9-0.6,1.2-0.8c0.3-0.1,0.7-0.2,1.1,0.2l6.2,6.7c0.1,0.1,0.1,0.2,0.2,0.3c0.1,0.1,0.2,0.2,0.2,0.2
			c0.1,0.3,0.2,0.5,0.2,0.8c0,0.1,0,0.2,0,0.3c-0.1,0.2-0.1,0.4-0.2,0.8l-0.1,0.7l0,0.2c0.1,0.4,0.3,0.7,0.7,0.9l0.8,0.3l0.5-0.3
			c0.3-0.3,0.7-0.6,1.1-1l0.5-0.5l0.3-0.4c0.3-0.6,0.2-1.2-0.1-1.7c-0.2-0.3-0.4-0.5-0.6-0.8c-0.3-0.2-0.5-0.5-0.7-0.7l-18.9-20.5
			l-0.5,0.5c0,0,0,0-0.1-0.1l0.4-0.6c-0.2-0.2-0.4-0.4-0.5-0.6c-0.2-0.2-0.4-0.5-0.6-0.7c-0.3-0.3-0.6-0.5-0.8-0.7
			c-0.3-0.1-0.9-0.3-1.8,0.3l-1.3,1.2c-0.2,0.2-0.4,0.4-0.5,0.8c-0.1,0.5,0.1,0.9,0.2,1l0.4,0.4l0.7,0c0.2,0,0.5,0,0.7-0.1
			c0.1,0,0.2,0,0.4-0.1c0.3-0.1,0.5-0.1,0.7-0.1c0.1,0,0.2,0,0.3,0.2c1.2,1.3,2.4,2.5,3.5,3.8c1.2,1.2,2.2,2.4,3.1,3.4
			c0.3,0.3,0.5,0.7,0.4,0.9c0,0.3-0.2,0.7-0.4,1c-0.1,0.2-0.2,0.3-0.3,0.4L580,143.2c-0.1,0.1-0.3,0.2-0.5,0.4c-0.1,0-0.3,0-0.4-0.1
			l-0.4-0.3c-0.3-0.3-0.6-0.5-0.8-0.6c-0.8-0.4-1.3,0-1.6,0.1c-0.1,0.1-0.3,0.3-0.3,0.4l-0.4,0.5l0.4,0.7c0.1,0.2,0.2,0.3,0.3,0.4
			l5.9,6.5c0.4,0.4,0.8,0.5,1.1,0.5c0.1,0,0.2,0,0.4,0c0.2-0.1,0.4-0.2,0.6-0.4c0.2-0.2,0.6-0.7,0.3-1.4
			C584.5,149.6,584.3,149.3,584,149z M582.6,150.6c0-0.1,0-0.2,0-0.4l0.1,0.1L582.6,150.6z"/>
		<path class="st92" d="M646.1,184.2c1.8-2.2,3.6-4.5,5.3-6.6c0.2-0.2,0.4-0.4,0.5-0.7c0.3-0.4,0.7-1.1,0.5-2.2
			c-0.1-0.4-0.3-0.8-0.6-1c-0.1-0.1-0.3-0.3-0.6-0.6c-0.2-0.1-0.4-0.3-0.6-0.4l0-0.1l-0.1,0c-0.5-0.2-1-0.4-1.7-0.3
			c-0.4,0-0.7,0.1-0.9,0.1c-1.1,0.3-2.2,0.5-3.3,0.8c-1.1,0.2-2.3,0.5-3.3,0.8L627,177c-1.4,0.3-2.6,0.5-3.4,0.7l-2.9,0.6
			c-1,0.2-2.3,0.5-3.8,0.9c-1.5,0.3-3.5,0.8-6.1,1.4c-0.3,0-0.5,0.1-0.7,0.1c-0.4,0-0.7-0.1-1.1-0.5l-0.5-0.4
			c-0.7-0.6-1.4-0.4-1.8-0.1c-0.3,0.2-0.4,0.5-0.5,0.8l0.1,0.7l3.4,5.4l0.8-0.4c0.9-0.4,1-1.2,0.9-1.6c0-0.3-0.1-0.7-0.2-0.8
			c-0.1-0.2-0.1-0.3-0.1-0.3c0,0,0-0.1,0.2-0.2c0.1,0,0.1-0.1,0.1-0.1l18.3-4.1l5.6,9.2l-5.5,6.8c-0.7,0.9-1.4,1.7-2,2.4
			c-0.6,0.7-1.1,1.4-1.7,2.1c-0.4,0.5-0.7,0.9-1.2,1.4c-0.4,0.5-0.9,0.9-1.4,1.5c-0.2,0.3-0.4,0.3-0.6,0.2c-0.3-0.1-0.5-0.1-0.8-0.1
			c-0.8,0.1-1.1,0.5-1.3,0.8c-0.3,0.5-0.3,1,0,1.6l3.1,5l0.3,0.4l0.3,0.1c0.2,0.1,0.3,0.1,0.5,0.1c0.3,0,0.6-0.1,0.8-0.4
			c0.4-0.3,0.5-0.8,0.5-1.4c0-0.2,0.1-0.5,0.1-0.7c0,0,0-0.2,0.4-0.7c2.2-2.9,4.4-5.8,6.6-8.6c2.3-2.8,4.6-5.6,6.8-8.4
			C642.5,188.6,644.3,186.4,646.1,184.2z M632.6,178.7l0.7-0.2c1.1-0.2,2.8-0.6,5.1-1.1c1.8-0.4,4.2-0.9,7.1-1.6
			c-1.2,1.6-2.4,3.2-3.6,4.8c-1.5,2-3,3.9-4.6,5.7L632.6,178.7z"/>
		<path class="st92" d="M684,242.9c-0.1-0.3-0.1-0.5-0.2-0.7c-0.2-0.8-0.3-1.5-0.5-2.2c-0.2-0.7-0.3-1.5-0.5-2.2
			c-0.3-1.1-0.7-2.3-1.3-3.6c-0.6-1.2-1.3-2.4-2.1-3.4c-0.8-1.1-1.8-2-2.8-2.8c-1.1-0.8-2.4-1.3-3.8-1.6c-1-0.2-2-0.2-3-0.1
			c-1,0.1-1.9,0.4-2.8,0.8c-0.9,0.4-1.7,0.9-2.4,1.6c-0.8,0.7-1.4,1.5-1.8,2.4c-0.3,0.5-0.5,1.1-0.7,1.6c-0.2,0.5-0.4,1-0.6,1.6
			c-0.4,1.4-0.7,2.8-0.9,4.2c-0.2,1.4-0.3,2.7-0.4,4.1c-0.1,1.1-0.2,2.2-0.4,3.4c-0.2,1.1-0.5,2.2-0.9,3.3c-0.4,1-0.9,2-1.6,2.8
			c-0.6,0.8-1.4,1.4-2.4,1.9c-1,0.5-2.1,0.7-3.2,0.8c-1.1,0.1-2.1-0.1-3-0.5c-1.3-0.7-2.3-1.6-3-2.9c-0.8-1.4-1.5-2.9-2.1-4.5
			c-0.3-1.2-0.5-2.5-0.5-3.7c0-1.3,0.3-2.5,0.8-3.4c0.1-0.1,0.2-0.3,0.4-0.6c0.4-0.8,0.2-1.4-0.1-1.8c-0.2-0.2-0.6-0.6-1.4-0.5
			c-0.3,0.1-0.6,0.2-0.9,0.3c-0.3,0.1-0.5,0.3-0.8,0.4c-0.1,0.1-0.2,0.1-0.3,0.2c-0.8,0.5-1.7,1.4-1.6,3.2c0,0.7,0.2,1.6,0.5,2.5
			l0.9,2.8c0.1,0.4,0.2,0.7,0.3,1.2c0.1,0.4,0.3,0.8,0.4,1.2c0.4,1,0.8,1.9,1.2,2.7c0.4,0.9,1,1.7,1.5,2.4c0.3,0.4,0.6,0.8,0.9,1.2
			c0.4,0.5,0.8,0.9,1.3,1.2c1,0.8,2.3,1.5,3.7,1.9c1.3,0.4,2.7,0.6,4,0.6c1.5,0,2.9-0.3,4.2-0.9l0.1,0c2.6-1.3,4.6-3.3,6-5.8
			c0.7-1.3,1.2-2.7,1.5-4.2c0.3-1.4,0.5-2.8,0.6-4.2c0.1-1.5,0.3-3.1,0.5-4.6c0.2-1.5,0.6-3,1.1-4.4c0.2-0.6,0.5-1.1,0.7-1.7
			c0.3-0.5,0.6-1,0.9-1.3c0.5-0.5,1.1-0.8,1.7-1c0.6-0.2,1.3-0.3,2-0.2c0.7,0.1,1.3,0.3,1.9,0.7c0.6,0.4,1.2,0.8,1.7,1.4
			c0.5,0.6,1,1.2,1.4,1.8c0.4,0.7,0.8,1.4,1.1,2.1c0.6,1.3,1,2.8,1.2,4.4c0.1,1.1-0.2,2-1,2.8c-0.2,0.2-0.4,0.4-0.7,0.6
			c-0.3,0.2-0.6,0.5-1,0.8c-0.8,0.7-0.8,1.4-0.6,2c0.3,0.5,0.8,0.8,1.3,0.7l0.6-0.1c0.7-0.2,1.3-0.4,1.9-0.6c0.5-0.2,1-0.4,1.6-0.7
			c0.6-0.2,1-0.6,1.2-1.1c0.1-0.3,0.2-0.7,0.2-1.1C684.2,243.6,684.1,243.3,684,242.9z"/>
	</g>
	<g>
		<path class="st92" d="M69.7,454.2c-0.7-3.1,0.1-7,3.4-8.1c1.7-0.6,3.5-0.4,5.1,0.4c1.7,0.9,2.9,2.4,3.6,4.3
			c0.7,2.7,0.6,4.9-0.4,7.4l-0.5,1.2l4.1,0.9l0.4-0.7c1.3-2.8,1.4-6.6,0.3-10c-2-6.1-8.1-9.3-13.8-7.4c-5.1,1.7-7.2,6.2-6.2,12.7
			c0,0.3,0.1,0.7,0.2,1.2c0.9,4.6,1.2,9.5-3.9,11.2c-2.1,0.7-4.2,0.6-5.9-0.3c-1.8-0.9-3.1-2.5-3.8-4.6c0-0.1-2.1-6.5,1.2-10.7
			l0.9-1.1l-4-1.4l-0.5,0.6c-4.2,5.5-1.6,13.6-1.5,13.9c1.8,5.1,6.3,8.2,11,8.2c1.2,0,2.4-0.2,3.6-0.6
			C69.4,469.4,71.7,463.4,69.7,454.2z"/>
		<polygon class="st92" points="110.4,513.5 114.2,511.5 98.6,483.2 94.9,485.3 101.7,497.6 70.3,514.8 72.3,518.5 103.7,501.2 		
			"/>
		<path class="st92" d="M142.3,548.4l-19.9,16.4c-2,1.7-4.5,2.4-7.2,2.2c-2.6-0.3-5-1.5-6.7-3.5c-1.7-2-2.5-4.6-2.2-7.2
			c0.3-2.6,1.5-5,3.5-6.6l19.8-16.3l-2.8-3.4l-19.7,16.3c-2.8,2.1-4.7,5.4-5.1,9.1c-0.5,4,0.7,8,3.1,11c2.8,3.4,6.8,5.1,10.8,5.1
			c3.2,0,6.5-1.1,9.3-3.3l19.7-16.2L142.3,548.4z"/>
		<path class="st92" d="M167,573.1l-7.9-6.7l-25.9,30.2l7.9,6.7l0,0c3.7,3.1,8.2,4.6,12.7,4.6c5.6,0,11.3-2.4,15.2-7
			C176,592.7,175.1,580.2,167,573.1z M165.6,598c-2.6,3.1-6.5,5-10.7,5.4c-4.2,0.4-8.3-0.9-11.3-3.5l-4.4-3.7l20.3-23.8l4.4,3.8
			C170.3,581.6,171.1,591.6,165.6,598z"/>
		
			<rect x="170.5" y="613.5" transform="matrix(0.543 -0.8398 0.8398 0.543 -429.9151 441.2974)" class="st92" width="40" height="4.1"/>
		<path class="st92" d="M237.9,619.1c-9.6-4.4-21.1,0.2-25.6,10.2c-2.2,4.8-2.5,10.2-0.8,15.1c1.7,4.9,5.2,8.8,9.9,11
			c2.5,1.1,5,1.6,7.6,1.6c7.4,0,14.7-4.5,18.1-11.9C251.6,635.1,247.5,623.4,237.9,619.1z M243.4,643.4c-3.5,7.7-12.7,11.4-20.1,8
			c-3.6-1.6-6.3-4.7-7.7-8.6c-1.4-3.9-1.2-8.1,0.5-11.9c1.7-3.7,4.8-6.6,8.6-8.1c1.9-0.7,3.8-1.1,5.6-1.1c2,0,4,0.4,5.9,1.3
			c3.6,1.6,6.3,4.7,7.7,8.6C245.2,635.5,245.1,639.7,243.4,643.4z"/>
		<path class="st92" d="M411.4,680l4.8-1.1l1.5-9.5l17.4-4l5.7,7.9l4.9-1.1l-26.6-36.6L411.4,680z M432.5,661.7l-14,3.2l3.2-18.2
			L432.5,661.7z"/>
		<path class="st92" d="M489.5,648.5c-1.7,2.3-3.9,4.2-6.6,5.3c-7.8,3.3-17.1-0.6-20.3-8.3c-3.2-7.8,0.6-17.1,8.4-20.3
			c2.8-1.1,5.6-1.5,8.2-1.1l1.1,0.2l0.4-4.5l-1-0.1c-3.6-0.5-7.3,0-10.5,1.3c-10.2,4.2-15,16-10.7,26.2c2.1,4.9,5.9,8.7,10.9,10.8
			c2.5,1,5,1.5,7.6,1.5c2.6,0,5.2-0.5,7.7-1.5c3.4-1.4,6.3-3.7,8.4-6.6l0.6-0.8l-3.4-2.9L489.5,648.5z"/>
		<path class="st92" d="M517.8,641.5l4.2-2.7l-1.9-9.5l14.9-9.7l8.1,5.4l4.2-2.7l-37.5-25.2L517.8,641.5z M519.2,624.9l-3.3-18.2
			l15.3,10.3L519.2,624.9z"/>
		<path class="st92" d="M548.1,569.3l-7.5,7.2l27.5,28.8l7.5-7.2l0,0c7.7-7.6,7.9-20.1,0.4-28C568.6,562.3,556.1,561.9,548.1,569.3z
			 M572.6,595.2l-4.2,4l-21.7-22.6l4.2-4c2.9-2.8,6.9-4.3,11.1-4.2c4.2,0.1,8,1.8,10.8,4.7c2.8,2.9,4.4,7,4.3,11.2
			C577.1,588.5,575.5,592.4,572.6,595.2z"/>
		<polygon class="st92" points="606.9,558.2 596.5,550.3 605.3,538.5 601.9,536 593.1,547.8 581.8,539.4 593.4,523.9 590.1,521.4 
			576,540.3 607.8,564.1 621.6,545.6 618.2,543.1 		"/>
		<polygon class="st92" points="616.6,472.5 636.5,495.5 606.1,494.4 604,498.4 636.9,522.7 638.7,518.9 611.9,498.9 646.2,500.2 
			623.8,474.2 656.2,482.7 658,478.9 618.5,468.4 		"/>
		<polygon class="st92" points="652.1,437.1 633.9,419.2 632.6,424.2 647.2,438.2 627.5,443.3 626.2,448.2 651.3,441.5 667.9,446 
			669,441.7 		"/>
	</g>
	<g>
		<g>
			<circle class="st92" cx="322.4" cy="673.1" r="10.5"/>
			<path class="st92" d="M322.4,684.7c-6.4,0-11.6-5.2-11.6-11.6c0-6.4,5.2-11.6,11.6-11.6s11.6,5.2,11.6,11.6
				C333.9,679.5,328.7,684.7,322.4,684.7z M322.4,663.7c-5.2,0-9.5,4.3-9.5,9.5c0,5.2,4.3,9.5,9.5,9.5s9.5-4.3,9.5-9.5
				C331.8,667.9,327.6,663.7,322.4,663.7z"/>
		</g>
	</g>
</g>
</svg>
