<svg xmlns="http://www.w3.org/2000/svg" width="48" height="48" viewBox="0 0 48 48"><defs><style>.a{fill:#bc7d81;}.b,.c{fill:none;}.b{opacity:0;}.c{stroke:#fff;stroke-linecap:round;stroke-linejoin:round;stroke-width:1.667px;}</style></defs><g transform="translate(-296 -982)"><rect class="a" width="48" height="48" rx="24" transform="translate(296 982)"/><g transform="translate(310 996)"><rect class="b" width="20" height="20"/><g transform="translate(0.833 2.491)"><path class="c" d="M19.167,2.5A9.094,9.094,0,0,1,16.55,3.775,3.733,3.733,0,0,0,10,6.275v.833A8.884,8.884,0,0,1,2.5,3.333s-3.333,7.5,4.167,10.834A9.7,9.7,0,0,1,.833,15.833C8.333,20,17.5,15.833,17.5,6.25a3.739,3.739,0,0,0-.067-.692A6.427,6.427,0,0,0,19.167,2.5Z" transform="translate(-0.833 -2.491)"/></g></g></g></svg>