<svg xmlns="http://www.w3.org/2000/svg" width="48" height="48" viewBox="0 0 48 48"><defs><style>.a{fill:#bc7d81;}.b,.c{fill:none;}.b{opacity:0;}.c{stroke:#fff;stroke-linecap:round;stroke-linejoin:round;stroke-width:1.667px;}</style></defs><g transform="translate(-488 -982)"><rect class="a" width="48" height="48" rx="24" transform="translate(488 982)"/><g transform="translate(502.402 996)"><rect class="b" width="20" height="20" transform="translate(-0.402)"/><g transform="translate(1.76 1.667)"><path class="c" d="M18.333,14.1v2.5a1.667,1.667,0,0,1-1.816,1.667,16.488,16.488,0,0,1-7.192-2.559,16.24,16.24,0,0,1-5-5A16.488,16.488,0,0,1,1.767,3.483,1.667,1.667,0,0,1,3.425,1.667h2.5A1.666,1.666,0,0,1,7.592,3.1a10.68,10.68,0,0,0,.583,2.342A1.665,1.665,0,0,1,7.8,7.2L6.742,8.258a13.319,13.319,0,0,0,5,5L12.8,12.2a1.665,1.665,0,0,1,1.758-.375,10.68,10.68,0,0,0,2.342.583A1.667,1.667,0,0,1,18.333,14.1Z" transform="translate(-1.76 -1.667)"/></g></g></g></svg>