<svg xmlns="http://www.w3.org/2000/svg" width="48" height="48" viewBox="0 0 48 48"><defs><style>.a{fill:#51ba61;}.b,.c,.d{fill:none;}.b{opacity:0;}.c{stroke:#fff;stroke-linecap:round;stroke-linejoin:round;stroke-width:1.5px;}.e,.f{stroke:none;}.f{fill:#fdf6f6;}</style></defs><g transform="translate(-969 -800)"><path class="a" d="M24,0A24,24,0,1,1,0,24,24,24,0,0,1,24,0Z" transform="translate(969 800)"/><g transform="translate(191.965 -92.415)"><g transform="translate(793.402 908)"><rect class="b" width="16" height="16" transform="translate(-0.402)"/><g transform="translate(1.76 1.667)"><path class="c" d="M14.228,11.026v1.882a1.254,1.254,0,0,1-1.366,1.255,12.4,12.4,0,0,1-5.41-1.926A12.221,12.221,0,0,1,3.69,8.473,12.417,12.417,0,0,1,1.765,3.034,1.254,1.254,0,0,1,3.013,1.667H4.893A1.254,1.254,0,0,1,6.147,2.746a8.044,8.044,0,0,0,.439,1.763A1.254,1.254,0,0,1,6.3,5.832l-.8.8a10.023,10.023,0,0,0,3.761,3.764l.8-.8a1.252,1.252,0,0,1,1.323-.282,8.03,8.03,0,0,0,1.762.439A1.255,1.255,0,0,1,14.228,11.026Z" transform="translate(-1.76 -1.667)"/></g></g><g class="d" transform="translate(789.033 903.415)"><path class="e" d="M12.257,0a12.257,12.257,0,1,1-5.9,23.038c-.147-.08-4.779,1.259-5.154,1.354-1.559.471-1.108.05-.932-.913A46.494,46.494,0,0,0,1.557,18.31,12.781,12.781,0,0,1,0,12.257,12.257,12.257,0,0,1,12.257,0Z"/><path class="f" d="M 12.25733375549316 1.500001907348633 C 9.383943557739258 1.500001907348633 6.68254280090332 2.618963241577148 4.650753021240234 4.650753021240234 C 2.618963241577148 6.68254280090332 1.500003814697266 9.383942604064941 1.500003814697266 12.25733280181885 C 1.500003814697266 14.06693267822266 1.999334335327148 16.00888252258301 2.869983673095703 17.58525276184082 C 3.170654296875 18.12967300415039 3.170873641967773 18.37901306152344 2.518194198608398 20.97713279724121 C 2.388193130493164 21.49463272094727 2.239202499389648 22.06743240356445 2.09837532043457 22.5852108001709 C 5.676023483276367 21.58267021179199 6.020179748535156 21.53417205810547 6.337423324584961 21.53417205810547 C 6.601543426513672 21.53417205810547 6.850143432617188 21.59635162353516 7.076803207397461 21.71926307678223 C 8.638253211975098 22.56671333312988 10.42965316772461 23.01465225219727 12.25733375549316 23.01465225219727 C 15.13071346282959 23.01465225219727 17.83211326599121 21.89569282531738 19.8639030456543 19.8639030456543 C 21.89569282531738 17.83211326599121 23.0146541595459 15.13071250915527 23.0146541595459 12.25733280181885 C 23.0146541595459 9.383942604064941 21.89569282531738 6.68254280090332 19.8639030456543 4.650753021240234 C 17.83211326599121 2.618963241577148 15.13071346282959 1.500001907348633 12.25733375549316 1.500001907348633 M 12.25733375549316 1.9073486328125e-06 C 19.02686309814453 1.9073486328125e-06 24.5146541595459 5.48779296875 24.5146541595459 12.25733280181885 C 24.5146541595459 19.02686309814453 19.02686309814453 24.51465225219727 12.25733375549316 24.51465225219727 C 10.14434337615967 24.51465225219727 8.1134033203125 23.9885425567627 6.361293792724609 23.03761291503906 C 6.214023590087891 22.95767974853516 1.582612991333008 24.29651260375977 1.207042694091797 24.39145278930664 C -0.3515186309814453 24.86196327209473 0.09868240356445312 24.44120216369629 0.2745532989501953 23.47811317443848 C 0.5871734619140625 22.57761192321777 1.638053894042969 18.45733261108398 1.556922912597656 18.31043243408203 C 0.5913238525390625 16.5621337890625 3.814697265625e-06 14.40327262878418 3.814697265625e-06 12.25733280181885 C 3.814697265625e-06 5.48779296875 5.48779296875 1.9073486328125e-06 12.25733375549316 1.9073486328125e-06 Z"/></g></g></g></svg>